<svg width="355" height="275" viewBox="0 0 355 275" fill="none" xmlns="http://www.w3.org/2000/svg">
<path d="M18.5218 274.385C18.4981 274.251 16.2012 260.756 20.8919 249.548C25.5826 238.341 35.5953 233.398 35.6959 233.349L36.1535 233.128L36.2616 233.743C36.2854 233.878 38.5822 247.372 33.8915 258.58C29.201 269.787 19.1881 274.73 19.0875 274.779L18.6297 275L18.5218 274.385ZM35.5259 234.628C33.5203 235.74 25.6047 240.604 21.643 250.07C17.6809 259.537 18.8763 270.732 19.2575 273.5C21.2623 272.392 29.1748 267.534 33.1404 258.058C37.1023 248.592 35.9073 237.398 35.5259 234.628V234.628Z" fill="#F1F1F1"/>
<path d="M30.3069 254.648C21.8775 261.183 18.6311 274.161 18.6311 274.161C18.6311 274.161 29.0514 276.546 37.4808 270.012C45.9102 263.478 49.1567 250.499 49.1567 250.499C49.1567 250.499 38.7363 248.114 30.3069 254.648Z" fill="#F1F1F1"/>
<path d="M157.96 149.902C158.088 149.047 158.07 148.166 157.905 147.321C157.741 146.477 157.435 145.689 157.009 145.013C156.583 144.337 156.047 143.79 155.438 143.41C154.83 143.03 154.165 142.826 153.489 142.813L149.586 130.166L143.042 131.347L148.749 149.109C148.807 150.573 149.281 151.958 150.079 153.003C150.877 154.048 151.946 154.679 153.081 154.776C154.216 154.874 155.34 154.432 156.239 153.533C157.138 152.635 157.75 151.343 157.96 149.902V149.902Z" fill="#9F616A"/>
<path d="M145.903 145.458L143.876 139.228L131.24 108.238L131.927 50.8962L132.059 50.8736C140.144 49.4973 145.615 97.4961 145.844 99.5403L153.827 134.72L155.728 142.474L145.903 145.458Z" fill="#448AFF"/>
<path d="M126.488 266.372L132.631 266.372L135.554 235.84L126.486 235.841L126.488 266.372Z" fill="#9F616A"/>
<path d="M124.921 263.788L137.02 263.787H137.02C139.065 263.787 141.026 264.834 142.472 266.697C143.918 268.56 144.73 271.087 144.73 273.721V274.044L124.921 274.045L124.921 263.788Z" fill="#2F2E41"/>
<path d="M69.9991 254.312L75.04 258.838L90.9863 235.942L83.5468 229.263L69.9991 254.312Z" fill="#9F616A"/>
<path d="M69.8604 251.037L79.7871 259.95L79.7875 259.95C81.4651 261.457 82.6096 263.76 82.9692 266.353C83.3288 268.947 82.874 271.618 81.705 273.78L81.5617 274.045L65.309 259.453L69.8604 251.037Z" fill="#2F2E41"/>
<path d="M123.111 259.196L122.846 201.921L118.98 165.907L111.773 197.578L111.759 197.604L85.6419 246.456L75.4795 239.822L75.5352 239.651C76.1562 237.748 90.7905 193.048 94.724 193.048C95.0675 193.079 95.4117 193.002 95.727 192.824C96.0423 192.645 96.3191 192.371 96.5337 192.024C97.6882 190.037 96.748 185.822 96.7384 185.78C95.6124 179.764 98.4436 177.715 99.0075 177.373L100.524 137.034L100.681 137.048L141.799 140.764L140.074 191.199L136.363 257.279L136.236 257.298L123.111 259.196Z" fill="#2F2E41"/>
<path d="M142.427 149.702L142.249 149.684L98.0286 145.091L98.1377 126.24L100.302 77.0175L100.314 76.9833L109.129 52.3286L115.377 48.6833L124.493 48.0653L124.515 48.0724L132.835 50.7281L141.489 130.772L142.427 149.702Z" fill="#448AFF"/>
<path d="M125.921 41.7467C131.564 37.7728 133.637 28.6583 130.553 21.3888C127.469 14.1193 120.394 11.4477 114.752 15.4216C109.11 19.3954 107.036 28.51 110.121 35.7795C113.205 43.049 120.279 45.7206 125.921 41.7467Z" fill="#9F616A"/>
<path d="M108.628 32.3497V26.505C108.628 26.505 104.969 20.9538 108.993 19.5554C108.993 19.5554 110.091 5.5718 119.602 12.0975C119.602 12.0975 132.772 9.30077 131.309 19.0893C131.309 19.0893 134.601 16.5338 133.504 23.0595L131.381 33.5712C131.381 33.5712 132.407 26.6275 129.114 25.6952L127.285 24.2969C127.285 24.2969 122.163 30.8225 114.481 22.8985C114.481 22.8985 111.188 21.886 111.554 26.0811C111.92 30.2762 108.628 32.3497 108.628 32.3497Z" fill="#2F2E41"/>
<path d="M119.125 135.624C119.132 134.754 118.991 133.892 118.712 133.099C118.432 132.306 118.022 131.601 117.508 131.035C116.995 130.469 116.391 130.054 115.74 129.821C115.089 129.588 114.406 129.541 113.74 129.685L108.138 118.145L101.865 120.821L109.953 136.974C110.214 138.401 110.873 139.655 111.804 140.498C112.735 141.341 113.873 141.714 115.004 141.548C116.135 141.382 117.178 140.687 117.938 139.595C118.697 138.503 119.12 137.091 119.125 135.624V135.624Z" fill="#9F616A"/>
<path d="M104.656 131.987L94.5217 105.477L94.5307 105.412C94.5715 105.119 98.651 75.9347 101.771 65.2075C104.911 54.4124 109.209 52.245 109.39 52.158L109.481 52.1145L113.334 56.877L107.996 102.784L113.75 124.925L104.656 131.987Z" fill="#448AFF"/>
<path d="M355 0H335.377V25.282H355V0Z" fill="#F1F1F1"/>
<path d="M201.432 98.3799H181.81V123.662H201.432V98.3799Z" fill="#F1F1F1"/>
<path d="M192.823 112.583H347.959V11.3955H192.823V112.583Z" fill="white"/>
<path d="M349.239 114.232H191.544V9.74665H349.239V114.232ZM194.103 110.934H346.679V13.0443H194.103V110.934Z" fill="#E5E5E5"/>
<path d="M330.804 46.8903H211.445V51.9902H330.804V46.8903Z" fill="#E5E5E5"/>
<path d="M330.804 59.2582H211.445V64.3581H330.804V59.2582Z" fill="#E5E5E5"/>
<path d="M330.804 77.5197H308.622V81.9455H330.804V77.5197Z" fill="#448AFF"/>
<path d="M162.952 274.978H0.426577C0.313442 274.978 0.20494 274.92 0.124941 274.817C0.0449425 274.714 0 274.574 0 274.428C0 274.282 0.0449425 274.143 0.124941 274.04C0.20494 273.936 0.313442 273.879 0.426577 273.879H162.952C163.066 273.879 163.174 273.936 163.254 274.04C163.334 274.143 163.379 274.282 163.379 274.428C163.379 274.574 163.334 274.714 163.254 274.817C163.174 274.92 163.066 274.978 162.952 274.978Z" fill="#CBCBCB"/>
</svg>
