<svg width="293" height="321" viewBox="0 0 293 321" fill="none" xmlns="http://www.w3.org/2000/svg">
<g clip-path="url(#clip0_7_35)">
<path d="M28.2823 268.801L25.8086 257.741C21.2926 255.603 16.6697 253.746 11.9621 252.18L11.6012 257.309L10.335 251.645C4.49617 249.769 0.520653 248.933 0.520653 248.933C0.520653 248.933 5.73056 271.375 16.8841 288.585L30.0087 291.212L19.7859 292.748C21.191 294.629 22.7028 296.411 24.3124 298.084C40.5969 314.89 58.8166 322.681 65.0067 315.485C71.1967 308.289 63.0135 288.832 46.7289 272.028C41.6805 266.818 35.3213 262.62 28.9488 259.305L28.2823 268.801Z" fill="#F2F2F2"/>
<path d="M52.6785 256.989L55.7823 246.112C52.9285 241.724 49.8507 237.516 46.5638 233.508L43.8347 237.698L45.4238 232.129C41.3142 227.218 38.3084 224.251 38.3084 224.251C38.3084 224.251 32.1759 246.427 33.5932 267.487L43.5797 277.168L34.1088 272.697C34.4235 275.104 34.876 277.487 35.4639 279.832C41.4622 303.451 53.3697 320.441 62.0598 317.781C70.7499 315.121 72.9324 293.818 66.9341 270.199C65.0747 262.877 61.6161 255.68 57.7299 249.232L52.6785 256.989Z" fill="#F2F2F2"/>
<path d="M204.318 77.0413L202.723 77.0294L203.08 29.1872C203.107 25.5508 202.48 21.9451 201.234 18.5761C199.989 15.207 198.149 12.1405 195.821 9.5517C193.493 6.96288 190.721 4.90243 187.664 3.48799C184.608 2.07355 181.326 1.33282 178.006 1.30809L85.4686 0.618881C78.764 0.568946 72.3122 3.43848 67.5327 8.59621C62.7531 13.7539 60.0373 20.7774 59.9826 28.1215L58.0277 290.592C58.0007 294.228 58.6277 297.834 59.8731 301.203C61.1185 304.572 62.9579 307.639 65.2862 310.228C67.6144 312.816 70.3861 314.877 73.4428 316.291C76.4995 317.706 79.7814 318.446 83.1012 318.471L175.639 319.16C182.343 319.21 188.795 316.341 193.574 311.183C198.354 306.025 201.07 299.002 201.124 291.658L202.469 111.084L204.063 111.096L204.318 77.0413Z" fill="#E6E6E6"/>
<path d="M178.972 8.51717L166.894 8.42721C167.439 9.92321 167.639 11.5434 167.476 13.145C167.314 14.7467 166.795 16.2806 165.965 17.6117C165.134 18.9428 164.018 20.0302 162.714 20.778C161.41 21.5259 159.959 21.9113 158.488 21.9003L105.475 21.5055C104.004 21.4944 102.558 21.0873 101.266 20.3201C99.9737 19.5528 98.8738 18.4489 98.0633 17.1056C97.2528 15.7623 96.7567 14.2209 96.6185 12.6171C96.4803 11.0133 96.7044 9.39631 97.271 7.90867L85.9892 7.82464C80.9823 7.78735 76.1642 9.93029 72.5949 13.782C69.0256 17.6338 66.9974 22.8788 66.9565 28.3633L65.0045 290.453C64.9637 295.937 66.9135 301.212 70.425 305.116C73.9366 309.021 78.7222 311.235 83.7291 311.273L176.712 311.965C181.719 312.002 186.537 309.859 190.107 306.008C193.676 302.156 195.704 296.911 195.745 291.426V291.426L197.697 29.3366C197.738 23.8522 195.788 18.5776 192.276 14.6733C188.765 10.7689 183.979 8.55446 178.972 8.51717V8.51717Z" fill="white"/>
<path d="M119.855 112.486C119.868 110.654 120.322 108.857 121.17 107.277C122.018 105.697 123.231 104.389 124.687 103.485C123.246 102.558 121.606 102.063 119.934 102.05C118.262 102.038 116.615 102.508 115.16 103.413C113.705 104.318 112.493 105.626 111.644 107.206C110.796 108.786 110.343 110.582 110.329 112.414C110.316 114.246 110.742 116.049 111.567 117.641C112.391 119.234 113.584 120.56 115.026 121.487C116.467 122.413 118.106 122.908 119.779 122.92C121.451 122.932 123.097 122.462 124.552 121.557C123.11 120.631 121.917 119.305 121.092 117.713C120.268 116.12 119.841 114.318 119.855 112.486V112.486Z" fill="#CCCCCC"/>
<path d="M131.83 112.575C131.844 110.743 132.297 108.946 133.146 107.366C133.994 105.786 135.207 104.478 136.663 103.574C135.221 102.647 133.582 102.152 131.91 102.14C130.238 102.127 128.591 102.597 127.136 103.502C125.681 104.407 124.468 105.715 123.62 107.295C122.772 108.875 122.319 110.672 122.305 112.503C122.291 114.335 122.718 116.138 123.543 117.731C124.367 119.323 125.56 120.649 127.001 121.576C128.443 122.503 130.082 122.997 131.755 123.009C133.427 123.021 135.073 122.551 136.528 121.646C135.086 120.72 133.893 119.394 133.068 117.802C132.243 116.21 131.817 114.407 131.83 112.575V112.575Z" fill="#CCCCCC"/>
<path d="M143.457 123.097C148.718 123.136 153.018 118.496 153.06 112.733C153.103 106.97 148.873 102.266 143.612 102.227C138.351 102.188 134.051 106.828 134.008 112.591C133.965 118.354 138.195 123.057 143.457 123.097Z" fill="#448AFF"/>
<path d="M159.212 145.372L103.691 144.959C103.163 144.954 102.658 144.72 102.287 144.308C101.916 143.896 101.71 143.339 101.714 142.76L102.167 81.9438C102.172 81.3648 102.386 80.8113 102.763 80.4047C103.14 79.998 103.648 79.7715 104.177 79.7748L159.698 80.1883C160.226 80.1929 160.731 80.427 161.102 80.8392C161.473 81.2514 161.679 81.808 161.675 82.387L161.222 143.203C161.217 143.782 161.003 144.336 160.626 144.742C160.249 145.149 159.741 145.376 159.212 145.372V145.372ZM104.17 80.6488C103.853 80.6468 103.548 80.7827 103.322 81.0267C103.096 81.2706 102.967 81.6028 102.964 81.9501L102.511 142.766C102.509 143.114 102.633 143.448 102.855 143.695C103.078 143.942 103.381 144.083 103.698 144.086L159.219 144.499C159.536 144.501 159.841 144.365 160.067 144.121C160.293 143.877 160.422 143.545 160.425 143.198L160.877 82.3815C160.88 82.0341 160.756 81.7001 160.534 81.4528C160.311 81.2055 160.008 81.065 159.691 81.0623L104.17 80.6488Z" fill="#CCCCCC"/>
<path d="M171.262 192.083L86.1096 191.449L86.1031 192.323L171.255 192.957L171.262 192.083Z" fill="#CCCCCC"/>
<path d="M88.8394 186.015C90.3246 186.026 91.5384 184.716 91.5505 183.089C91.5626 181.462 90.3685 180.135 88.8833 180.123C87.3981 180.112 86.1843 181.422 86.1722 183.049C86.1601 184.676 87.3542 186.004 88.8394 186.015Z" fill="#448AFF"/>
<path d="M171.042 221.538L85.8903 220.904L85.8838 221.777L171.036 222.412L171.042 221.538Z" fill="#CCCCCC"/>
<path d="M88.62 215.47C90.1052 215.481 91.319 214.171 91.3311 212.544C91.3432 210.918 90.1491 209.59 88.6639 209.579C87.1787 209.568 85.9649 210.877 85.9528 212.504C85.9407 214.131 87.1348 215.459 88.62 215.47Z" fill="#448AFF"/>
<path d="M169.234 255.068L142.324 254.868C141.859 254.864 141.415 254.658 141.089 254.295C140.763 253.933 140.582 253.443 140.585 252.934L140.662 242.603C140.666 242.093 140.855 241.607 141.186 241.249C141.517 240.891 141.965 240.692 142.429 240.695L169.34 240.896C169.805 240.9 170.249 241.105 170.575 241.468C170.901 241.83 171.082 242.32 171.079 242.829L171.002 253.161C170.998 253.67 170.809 254.157 170.478 254.514C170.146 254.872 169.699 255.071 169.234 255.068V255.068Z" fill="#448AFF"/>
<path d="M97.6113 186.08C99.0965 186.091 100.31 184.781 100.322 183.155C100.335 181.528 99.1404 180.2 97.6552 180.189C96.17 180.178 94.9562 181.488 94.9441 183.114C94.932 184.741 96.1261 186.069 97.6113 186.08Z" fill="#448AFF"/>
<path d="M106.383 186.145C107.868 186.157 109.082 184.847 109.094 183.22C109.106 181.593 107.912 180.265 106.427 180.254C104.942 180.243 103.728 181.553 103.716 183.18C103.704 184.807 104.898 186.134 106.383 186.145Z" fill="#448AFF"/>
<path d="M97.3919 215.535C98.8771 215.546 100.091 214.237 100.103 212.61C100.115 210.983 98.921 209.655 97.4358 209.644C95.9506 209.633 94.7368 210.943 94.7247 212.57C94.7126 214.196 95.9067 215.524 97.3919 215.535Z" fill="#448AFF"/>
<path d="M106.164 215.601C107.649 215.612 108.863 214.302 108.875 212.675C108.887 211.048 107.693 209.72 106.208 209.709C104.723 209.698 103.509 211.008 103.497 212.635C103.484 214.262 104.679 215.59 106.164 215.601Z" fill="#448AFF"/>
<path d="M289.124 320.992L9.38206 318.908C8.78321 318.904 8.29986 318.667 8.302 318.381C8.30414 318.094 8.79096 317.864 9.3898 317.868L289.131 319.952C289.73 319.956 290.214 320.193 290.211 320.48C290.209 320.767 289.722 320.996 289.124 320.992Z" fill="#3F3D56"/>
<path d="M220.828 210.532C221.019 210.629 221.202 210.743 221.375 210.872L238.911 202.832L239.573 197.794L246.556 197.799L246.057 209.361L222.942 215.871C222.892 216.046 222.833 216.218 222.764 216.385C222.424 217.162 221.883 217.813 221.208 218.254C220.533 218.696 219.754 218.909 218.969 218.868C218.184 218.827 217.428 218.532 216.796 218.021C216.165 217.511 215.685 216.806 215.417 215.997C215.15 215.188 215.106 214.311 215.293 213.474C215.479 212.638 215.887 211.88 216.466 211.296C217.044 210.712 217.766 210.328 218.542 210.192C219.318 210.056 220.114 210.174 220.828 210.532V210.532Z" fill="#FFB8B8"/>
<path d="M248.218 315.542L243.442 315.506L241.32 295.307L248.37 295.36L248.218 315.542Z" fill="#FFB8B8"/>
<path d="M240.041 313.986L249.253 314.054L249.206 320.408L234.193 320.296C234.206 318.611 234.829 316.999 235.926 315.816C237.022 314.633 238.503 313.974 240.041 313.986Z" fill="#2F2E41"/>
<path d="M266.807 314.202L262.049 314.679L258.129 294.809L265.15 294.104L266.807 314.202Z" fill="#FFB8B8"/>
<path d="M258.528 313.531L267.703 312.611L268.225 318.938L253.273 320.438C253.204 319.607 253.286 318.77 253.513 317.973C253.74 317.176 254.108 316.436 254.596 315.795C255.084 315.153 255.683 314.623 256.357 314.235C257.032 313.847 257.77 313.608 258.528 313.531Z" fill="#2F2E41"/>
<path d="M250.584 176.469C255.869 176.509 260.188 171.848 260.231 166.059C260.275 160.269 256.025 155.544 250.74 155.505C245.455 155.466 241.136 160.127 241.093 165.916C241.049 171.705 245.299 176.43 250.584 176.469Z" fill="#FFB8B8"/>
<path d="M242.405 311.417C241.994 311.415 241.598 311.254 241.285 310.963C240.973 310.672 240.764 310.269 240.696 309.826C238.336 294.774 230.62 245.557 230.437 244.194C230.433 244.163 230.431 244.131 230.432 244.1L230.459 240.434C230.46 240.301 230.499 240.171 230.571 240.063L231.651 238.433C231.702 238.355 231.769 238.29 231.847 238.245C231.924 238.199 232.01 238.173 232.098 238.17C238.187 237.902 258.128 237.135 259.081 238.46C260.038 239.792 259.667 243.802 259.582 244.593L259.586 244.675L268.074 307.477C268.14 307.978 268.024 308.487 267.75 308.895C267.476 309.303 267.067 309.577 266.61 309.657L261.009 310.625C260.592 310.695 260.166 310.599 259.808 310.354C259.451 310.109 259.186 309.732 259.061 309.291C257.376 303.222 251.727 282.809 249.775 274.912C249.763 274.862 249.734 274.819 249.695 274.79C249.656 274.761 249.608 274.749 249.561 274.756C249.515 274.763 249.472 274.788 249.441 274.827C249.409 274.866 249.392 274.917 249.393 274.968C249.437 282.483 249.537 301.655 249.571 308.276L249.575 308.989C249.575 309.472 249.41 309.938 249.112 310.294C248.814 310.65 248.405 310.871 247.966 310.914L242.568 311.41C242.514 311.415 242.459 311.417 242.405 311.417Z" fill="#2F2E41"/>
<path d="M244.48 180.546C242.802 181.621 241.788 183.612 241.199 185.641C240.109 189.398 239.441 193.285 239.21 197.218L238.516 208.993L230.781 240.164C237.239 246.239 240.999 244.898 249.789 240.033C258.579 235.169 259.53 241.75 259.53 241.75L261.478 215.192L264.195 186.176C263.639 185.431 263.009 184.757 262.316 184.167C260.019 182.181 257.34 180.792 254.48 180.106C251.621 179.419 248.656 179.453 245.808 180.204L244.48 180.546Z" fill="#448AFF"/>
<path d="M241.772 216.995C241.973 217.079 242.167 217.181 242.354 217.299L259.704 207.955L260.029 202.825L267.16 202.34L267.455 214.042L244.302 222.234C244.106 223.119 243.67 223.917 243.051 224.524C242.431 225.131 241.658 225.517 240.834 225.632C240.01 225.746 239.175 225.582 238.438 225.163C237.701 224.745 237.099 224.09 236.711 223.286C236.323 222.482 236.168 221.568 236.266 220.665C236.364 219.761 236.71 218.912 237.26 218.229C237.809 217.546 238.535 217.062 239.341 216.841C240.147 216.621 240.995 216.674 241.772 216.995Z" fill="#FFB8B8"/>
<path d="M264.069 186.308C268.308 187.983 268.924 205.795 268.924 205.795C263.945 202.744 257.907 207.63 257.907 207.63C257.907 207.63 256.691 202.964 255.235 196.927C254.795 195.228 254.754 193.435 255.117 191.713C255.479 189.991 256.234 188.398 257.309 187.08C257.309 187.08 259.83 184.631 264.069 186.308Z" fill="#448AFF"/>
<path d="M259.222 168.823C258.037 167.769 256.396 169.657 256.396 169.657L255.513 160.246C255.513 160.246 249.545 160.984 245.738 159.912C241.93 158.84 241.298 163.667 241.298 163.667C241.116 161.714 241.09 159.747 241.222 157.789C241.478 155.44 244.596 153.112 250.092 151.585C255.588 150.059 258.399 156.872 258.399 156.872C262.199 158.99 260.406 169.877 259.222 168.823Z" fill="#2F2E41"/>
</g>
<defs>
<clipPath id="clip0_7_35">
<rect width="290.216" height="318.847" fill="white" transform="translate(2.37469) rotate(0.426728)"/>
</clipPath>
</defs>
</svg>
