<svg width="178" height="205" viewBox="0 0 178 205" fill="none" xmlns="http://www.w3.org/2000/svg">
<g clip-path="url(#clip0_7_35)">
<path d="M17.1175 172.695L15.5499 165.595C12.7703 164.243 9.92654 163.071 7.03208 162.086L6.83421 165.386L6.03173 161.751C2.44208 160.572 0 160.054 0 160.054C0 160.054 3.29785 174.457 10.2171 185.468L18.2787 187.094L12.0159 188.131C12.8863 189.334 13.8216 190.472 14.8164 191.54C24.8809 202.267 36.091 207.189 39.8546 202.533C43.6182 197.876 38.5103 185.407 28.4459 174.681C25.3259 171.355 21.4064 168.687 17.4829 166.586L17.1175 172.695Z" fill="#F2F2F2"/>
<path d="M32.0262 164.983L33.8802 157.976C32.1098 155.168 30.203 152.477 28.1687 149.916L26.514 152.623L27.4632 149.035C24.9203 145.897 23.0632 144.004 23.0632 144.004C23.0632 144.004 19.4033 158.291 20.3688 171.824L26.5379 178.001L20.7088 175.171C20.9128 176.717 21.2013 178.247 21.5725 179.752C25.3593 194.908 32.74 205.775 38.0577 204.023C43.3754 202.271 44.6166 188.565 40.8298 173.408C39.656 168.71 37.5019 164.099 35.0889 159.972L32.0262 164.983Z" fill="#F2F2F2"/>
<path d="M124.207 48.5646H123.23V17.8041C123.23 15.466 122.829 13.1508 122.049 10.9908C121.27 8.83067 120.128 6.86796 118.688 5.2147C117.248 3.56144 115.539 2.25 113.658 1.35526C111.777 0.46052 109.76 5.72205e-06 107.724 5.72205e-06H50.966C46.8537 5.72205e-06 42.9098 1.87579 40.002 5.2147C37.0941 8.55361 35.4605 13.0821 35.4605 17.8041V186.562C35.4605 188.9 35.8616 191.215 36.6408 193.375C37.42 195.535 38.5622 197.498 40.002 199.151C41.4418 200.804 43.1511 202.116 45.0323 203.011C46.9135 203.905 48.9298 204.366 50.966 204.366H107.724C111.836 204.366 115.78 202.49 118.688 199.151C121.596 195.812 123.229 191.284 123.229 186.562V70.4606H124.207L124.207 48.5646Z" fill="#E6E6E6"/>
<path d="M108.35 4.63027H100.942C101.282 5.58947 101.412 6.63017 101.32 7.66068C101.228 8.69119 100.917 9.67988 100.414 10.5396C99.9103 11.3994 99.2306 12.1039 98.4343 12.5909C97.6381 13.078 96.7498 13.3327 95.8476 13.3327H63.3315C62.4293 13.3326 61.5411 13.0778 60.7449 12.5907C59.9487 12.1036 59.2691 11.3992 58.7659 10.5394C58.2627 9.67967 57.9513 8.69101 57.8593 7.66055C57.7672 6.63008 57.8972 5.58943 58.238 4.63027H51.3182C48.2472 4.63027 45.3019 6.03109 43.1304 8.52456C40.9589 11.018 39.7389 14.3999 39.7389 17.9262V186.439C39.7389 189.965 40.9589 193.347 43.1304 195.84C45.3019 198.334 48.2472 199.735 51.3182 199.735H108.35C111.421 199.735 114.366 198.334 116.538 195.84C118.709 193.347 119.929 189.965 119.929 186.439V186.439V17.9259C119.929 14.3997 118.709 11.0179 116.538 8.52446C114.366 6.03105 111.421 4.63027 108.35 4.63027V4.63027Z" fill="white"/>
<path d="M72.5667 71.7572C72.5665 70.5793 72.8365 69.4221 73.3496 68.4021C73.8626 67.3821 74.6006 66.5353 75.4893 65.9469C74.6011 65.3579 73.5935 65.0477 72.5677 65.0476C71.542 65.0475 70.5343 65.3574 69.646 65.9462C68.7577 66.535 68.02 67.382 67.5071 68.4019C66.9942 69.4219 66.7242 70.579 66.7242 71.7567C66.7242 72.9345 66.9942 74.0916 67.5071 75.1115C68.02 76.1315 68.7577 76.9785 69.646 77.5673C70.5343 78.1561 71.542 78.466 72.5677 78.4659C73.5935 78.4658 74.6011 78.1556 75.4893 77.5665C74.6007 76.9783 73.8627 76.1316 73.3497 75.1118C72.8366 74.0919 72.5665 72.9349 72.5667 71.7572V71.7572Z" fill="#CCCCCC"/>
<path d="M79.912 71.7572C79.9118 70.5793 80.1818 69.4221 80.6949 68.4021C81.208 67.3821 81.946 66.5353 82.8347 65.9469C81.9465 65.3579 80.9388 65.0477 79.9131 65.0476C78.8874 65.0475 77.8797 65.3574 76.9914 65.9462C76.103 66.535 75.3653 67.382 74.8524 68.4019C74.3395 69.4219 74.0695 70.579 74.0695 71.7567C74.0695 72.9345 74.3395 74.0916 74.8524 75.1115C75.3653 76.1315 76.103 76.9785 76.9914 77.5673C77.8797 78.1561 78.8874 78.466 79.9131 78.4659C80.9388 78.4658 81.9465 78.1556 82.8347 77.5665C81.9461 76.9783 81.2081 76.1316 80.695 75.1118C80.182 74.0919 79.9119 72.9349 79.912 71.7572V71.7572Z" fill="#CCCCCC"/>
<path d="M87.0906 78.466C90.3176 78.466 92.9335 75.4622 92.9335 71.7569C92.9335 68.0515 90.3176 65.0477 87.0906 65.0477C83.8636 65.0477 81.2477 68.0515 81.2477 71.7569C81.2477 75.4622 83.8636 78.466 87.0906 78.466Z" fill="#448AFF"/>
<path d="M96.8556 92.7122H62.8017C62.4775 92.7118 62.1666 92.5637 61.9374 92.3005C61.7082 92.0372 61.5792 91.6803 61.5788 91.3081V52.2057C61.5792 51.8334 61.7082 51.4765 61.9374 51.2133C62.1666 50.9501 62.4775 50.802 62.8017 50.8016H96.8556C97.1798 50.802 97.4906 50.9501 97.7198 51.2133C97.9491 51.4765 98.078 51.8334 98.0784 52.2057V91.3081C98.078 91.6803 97.9491 92.0372 97.7198 92.3005C97.4906 92.5637 97.1798 92.7118 96.8556 92.7122V92.7122ZM62.8017 51.3635C62.6071 51.3638 62.4206 51.4526 62.2831 51.6105C62.1456 51.7685 62.0682 51.9826 62.068 52.206V91.3083C62.0682 91.5317 62.1456 91.7458 62.2831 91.9038C62.4206 92.0617 62.6071 92.1505 62.8017 92.1508H96.8556C97.0501 92.1505 97.2366 92.0617 97.3741 91.9038C97.5117 91.7458 97.589 91.5317 97.5892 91.3083V52.206C97.589 51.9826 97.5117 51.7685 97.3741 51.6105C97.2366 51.4526 97.0501 51.3638 96.8556 51.3635H62.8017Z" fill="#CCCCCC"/>
<path d="M104.459 122.686H52.2309V123.248H104.459V122.686Z" fill="#CCCCCC"/>
<path d="M53.8803 119.179C54.7912 119.179 55.5297 118.331 55.5297 117.285C55.5297 116.239 54.7912 115.391 53.8803 115.391C52.9693 115.391 52.2309 116.239 52.2309 117.285C52.2309 118.331 52.9693 119.179 53.8803 119.179Z" fill="#448AFF"/>
<path d="M104.459 141.624H52.2309V142.186H104.459V141.624Z" fill="#CCCCCC"/>
<path d="M53.8803 138.118C54.7912 138.118 55.5297 137.27 55.5297 136.224C55.5297 135.178 54.7912 134.33 53.8803 134.33C52.9693 134.33 52.2309 135.178 52.2309 136.224C52.2309 137.27 52.9693 138.118 53.8803 138.118Z" fill="#448AFF"/>
<path d="M103.504 163.19H86.9979C86.7128 163.19 86.4394 163.06 86.2378 162.828C86.0362 162.597 85.9228 162.283 85.9225 161.955V155.313C85.9228 154.985 86.0362 154.671 86.2378 154.44C86.4394 154.208 86.7128 154.078 86.9979 154.078H103.504C103.789 154.078 104.062 154.208 104.264 154.44C104.465 154.671 104.579 154.985 104.579 155.313V161.955C104.579 162.283 104.465 162.597 104.264 162.828C104.062 163.06 103.789 163.19 103.504 163.19V163.19Z" fill="#448AFF"/>
<path d="M59.2605 119.179C60.1715 119.179 60.9099 118.331 60.9099 117.285C60.9099 116.239 60.1715 115.391 59.2605 115.391C58.3496 115.391 57.6111 116.239 57.6111 117.285C57.6111 118.331 58.3496 119.179 59.2605 119.179Z" fill="#448AFF"/>
<path d="M64.6408 119.179C65.5518 119.179 66.2902 118.331 66.2902 117.285C66.2902 116.239 65.5518 115.391 64.6408 115.391C63.7299 115.391 62.9914 116.239 62.9914 117.285C62.9914 118.331 63.7299 119.179 64.6408 119.179Z" fill="#448AFF"/>
<path d="M59.2605 138.118C60.1715 138.118 60.9099 137.27 60.9099 136.224C60.9099 135.178 60.1715 134.33 59.2605 134.33C58.3496 134.33 57.6111 135.178 57.6111 136.224C57.6111 137.27 58.3496 138.118 59.2605 138.118Z" fill="#448AFF"/>
<path d="M64.6408 138.118C65.5518 138.118 66.2902 137.27 66.2902 136.224C66.2902 135.178 65.5518 134.33 64.6408 134.33C63.7299 134.33 62.9914 135.178 62.9914 136.224C62.9914 137.27 63.7299 138.118 64.6408 138.118Z" fill="#448AFF"/>
<path d="M177.335 205H5.75451C5.38721 205 5.08968 204.85 5.08968 204.666C5.08968 204.481 5.38721 204.331 5.75451 204.331H177.335C177.702 204.331 178 204.481 178 204.666C178 204.85 177.702 205 177.335 205Z" fill="#3F3D56"/>
<path d="M134.944 134.31C135.061 134.371 135.174 134.443 135.281 134.526L145.999 129.273L146.382 126.031L150.665 126L150.412 133.436L136.264 137.732C136.235 137.845 136.199 137.956 136.157 138.064C135.953 138.565 135.624 138.986 135.212 139.273C134.8 139.56 134.323 139.701 133.842 139.678C133.36 139.655 132.895 139.469 132.505 139.144C132.115 138.819 131.818 138.368 131.65 137.85C131.482 137.331 131.452 136.766 131.562 136.228C131.673 135.689 131.919 135.2 132.271 134.822C132.623 134.444 133.065 134.193 133.54 134.102C134.015 134.011 134.504 134.083 134.944 134.31V134.31Z" fill="#FFB8B8"/>
<path d="M152.222 201.692H149.292L147.899 188.716L152.223 188.716L152.222 201.692Z" fill="#FFB8B8"/>
<path d="M147.2 200.73H152.85V204.816H143.642C143.642 203.732 144.017 202.693 144.684 201.927C145.351 201.161 146.256 200.731 147.2 200.73Z" fill="#2F2E41"/>
<path d="M163.617 200.741L160.701 201.071L158.206 188.315L162.509 187.828L163.617 200.741Z" fill="#FFB8B8"/>
<path d="M158.536 200.35L164.159 199.714L164.508 203.779L155.345 204.816C155.299 204.282 155.345 203.743 155.481 203.23C155.616 202.716 155.839 202.239 156.135 201.824C156.431 201.409 156.796 201.066 157.208 200.813C157.62 200.56 158.071 200.403 158.536 200.35Z" fill="#2F2E41"/>
<path d="M153.038 112.268C156.279 112.268 158.907 109.25 158.907 105.528C158.907 101.806 156.279 98.7885 153.038 98.7885C149.796 98.7885 147.168 101.806 147.168 105.528C147.168 109.25 149.796 112.268 153.038 112.268Z" fill="#FFB8B8"/>
<path d="M148.638 199.068C148.386 199.068 148.142 198.967 147.949 198.781C147.756 198.596 147.626 198.338 147.583 198.053C146.066 188.387 141.109 156.782 140.991 155.906C140.988 155.886 140.987 155.866 140.987 155.845V153.489C140.987 153.403 141.01 153.319 141.054 153.249L141.709 152.196C141.74 152.146 141.781 152.104 141.828 152.074C141.875 152.044 141.928 152.027 141.982 152.025C145.715 151.824 157.942 151.235 158.532 152.082C159.126 152.934 158.916 155.514 158.868 156.023L158.87 156.076L164.363 196.412C164.406 196.733 164.337 197.061 164.171 197.325C164.005 197.589 163.755 197.767 163.475 197.821L160.045 198.47C159.789 198.517 159.527 198.457 159.307 198.301C159.087 198.145 158.922 197.904 158.844 197.621C157.783 193.728 154.224 180.63 152.991 175.563C152.984 175.53 152.966 175.503 152.942 175.484C152.918 175.466 152.888 175.459 152.86 175.463C152.831 175.468 152.805 175.484 152.786 175.51C152.767 175.535 152.757 175.567 152.757 175.601C152.819 180.432 152.968 192.757 153.019 197.014L153.024 197.473C153.027 197.783 152.928 198.083 152.746 198.314C152.565 198.544 152.316 198.688 152.046 198.717L148.738 199.063C148.704 199.066 148.671 199.068 148.638 199.068Z" fill="#2F2E41"/>
<path d="M149.313 114.918C148.288 115.617 147.675 116.902 147.324 118.209C146.673 120.63 146.281 123.132 146.157 125.662L145.785 133.235L141.183 153.313C145.171 157.188 147.472 156.308 152.841 153.138C158.209 149.969 158.823 154.195 158.823 154.195L159.896 137.111L161.43 118.443C161.086 117.967 160.696 117.537 160.268 117.16C158.851 115.894 157.201 115.014 155.444 114.587C153.687 114.159 151.869 114.195 150.126 114.692L149.313 114.918Z" fill="#448AFF"/>
<path d="M147.818 138.365C147.942 138.418 148.062 138.483 148.177 138.558L158.775 132.467L158.951 129.167L163.323 128.821L163.557 136.343L149.394 141.721C149.278 142.291 149.014 142.806 148.637 143.199C148.26 143.592 147.788 143.844 147.283 143.922C146.778 143.999 146.265 143.898 145.811 143.632C145.357 143.367 144.985 142.948 144.743 142.434C144.501 141.919 144.402 141.332 144.458 140.75C144.514 140.169 144.723 139.621 145.057 139.179C145.39 138.738 145.833 138.423 146.327 138.278C146.82 138.132 147.34 138.162 147.818 138.365Z" fill="#FFB8B8"/>
<path d="M161.353 118.528C163.961 119.585 164.42 131.034 164.42 131.034C161.353 129.096 157.671 132.267 157.671 132.267C157.671 132.267 156.904 129.273 155.984 125.398C155.706 124.308 155.673 123.155 155.887 122.046C156.102 120.938 156.557 119.91 157.211 119.057C157.211 119.057 158.746 117.471 161.353 118.528Z" fill="#448AFF"/>
<path d="M158.301 107.31C157.569 106.639 156.572 107.86 156.572 107.86L155.987 101.814C155.987 101.814 152.33 102.317 149.99 101.646C147.65 100.975 147.284 104.081 147.284 104.081C147.163 102.826 147.139 101.562 147.211 100.302C147.357 98.7909 149.259 97.2794 152.623 96.2716C155.987 95.2638 157.742 99.6306 157.742 99.6306C160.082 100.974 159.032 107.982 158.301 107.31Z" fill="#2F2E41"/>
</g>
<defs>
<clipPath id="clip0_7_35">
<rect width="178" height="205" fill="white"/>
</clipPath>
</defs>
</svg>
