<svg width="355" height="275" viewBox="0 0 355 275" fill="none" xmlns="http://www.w3.org/2000/svg">
<g clip-path="url(#clip0_13_67)">
<path d="M271.796 271.89C267.251 266.914 264.491 259.053 265.215 251.401C265.939 243.748 270.423 236.714 276.239 235.088C282.056 233.463 288.687 237.962 290.453 245.324C291.426 231.13 292.546 216.342 298.37 204.254C303.644 193.309 312.778 185.478 322.677 184.077C332.576 182.676 342.999 187.967 349.172 198.091C355.346 208.215 356.858 222.933 352.534 234.555C349.349 243.118 343.48 249.49 337.331 254.674C317.463 271.284 293.633 278.039 270.227 273.695L271.796 271.89Z" fill="#F2F2F2"/>
<path d="M339.383 188.261C331.215 196.881 323.722 206.522 317.012 217.045C306.51 233.456 298.012 251.856 291.814 271.604C291.36 273.044 293.166 273.672 293.614 272.247C303.756 240.153 319.946 211.865 340.703 189.971C341.636 188.988 340.308 187.285 339.383 188.261Z" fill="white"/>
<path d="M114.28 270.538C120.523 263.704 124.314 252.907 123.32 242.396C122.326 231.886 116.167 222.223 108.178 219.991C100.189 217.759 91.0816 223.937 88.655 234.049C87.3196 214.554 85.7807 194.242 77.7813 177.64C70.538 162.607 57.9924 151.851 44.3959 149.927C30.7993 148.002 16.4839 155.27 8.00426 169.175C-0.475413 183.08 -2.55162 203.295 3.38731 219.259C7.76232 231.019 15.8226 239.771 24.2678 246.891C51.2109 269.607 84.6338 279.081 116.436 273.017" fill="#F2F2F2"/>
<path d="M21.4496 155.673C32.6685 167.513 42.9606 180.755 52.1771 195.208C61.395 209.646 69.5104 225.208 76.4093 241.676C80.2655 250.914 83.7296 260.418 86.7861 270.145C87.4093 272.124 84.9295 272.985 84.3132 271.028C78.8993 253.879 72.2013 237.459 64.3153 222.003C56.4675 206.603 47.4854 192.226 37.4949 179.073C31.8443 171.637 25.8824 164.61 19.6363 158.023C18.356 156.672 20.1799 154.333 21.4496 155.673L21.4496 155.673Z" fill="white"/>
<path d="M254.825 274.398H105.888V76.3979C105.888 34.2719 132.338 0 164.85 0H195.862C228.374 0 254.825 34.2719 254.825 76.3979V274.398Z" fill="#F2F2F2"/>
<path d="M223.813 274.399H105.888V76.3985C105.855 60.2568 109.8 44.523 117.148 31.488C117.419 31.0096 117.689 30.5374 117.968 30.0704C121.522 24.0305 125.752 18.7113 130.517 14.2883C130.786 14.0345 131.056 13.7851 131.331 13.5357C135.318 9.96033 139.632 7.0375 144.173 4.83378C144.442 4.70135 144.717 4.56865 144.992 4.44137C149.099 2.5423 153.356 1.24145 157.685 0.562833C157.954 0.515329 158.229 0.478156 158.505 0.440983C162.723 -0.143485 166.978 -0.143485 171.197 0.440983C171.472 0.478156 171.747 0.515324 172.019 0.563341C176.347 1.242 180.603 2.5427 184.709 4.4414C184.984 4.56867 185.259 4.70136 185.529 4.83405C190.014 7.00997 194.277 9.88919 198.222 13.4074C198.496 13.6514 198.77 13.9008 199.041 14.1502C201.712 16.6207 204.221 19.373 206.542 22.3789C208.403 24.79 210.138 27.3602 211.734 30.072C212.012 30.5375 212.282 31.0096 212.552 31.4872C219.901 44.5224 223.846 60.2564 223.813 76.3985V274.399Z" fill="#CCCCCC"/>
<path d="M214.224 185.84C217.83 185.84 220.753 182.053 220.753 177.381C220.753 172.709 217.83 168.921 214.224 168.921C210.618 168.921 207.695 172.709 207.695 177.381C207.695 182.053 210.618 185.84 214.224 185.84Z" fill="#448AFF"/>
<path d="M242.624 268.468H237.621L235.241 243.466L242.625 243.467L242.624 268.468Z" fill="#FFB8B8"/>
<path d="M234.048 266.615H243.695V274.486H227.973C227.973 273.453 228.13 272.429 228.436 271.474C228.741 270.519 229.188 269.652 229.752 268.921C230.316 268.19 230.986 267.61 231.723 267.215C232.46 266.819 233.25 266.615 234.048 266.615V266.615Z" fill="#2F2E41"/>
<path d="M267.515 268.468H262.512L260.132 243.466L267.515 243.467L267.515 268.468Z" fill="#FFB8B8"/>
<path d="M258.938 266.615H268.586V274.486H252.864C252.864 273.453 253.021 272.429 253.326 271.474C253.632 270.519 254.079 269.652 254.643 268.921C255.207 268.19 255.877 267.61 256.614 267.215C257.351 266.819 258.141 266.615 258.938 266.615V266.615Z" fill="#2F2E41"/>
<path d="M217.528 179.056C217.168 178.369 216.929 177.588 216.827 176.769C216.726 175.949 216.764 175.11 216.939 174.312C217.115 173.513 217.423 172.774 217.843 172.146C218.263 171.519 218.784 171.018 219.369 170.68L236.375 109.949L244.742 115.866L225.326 173.903C225.699 175.214 225.689 176.658 225.296 177.96C224.903 179.262 224.155 180.332 223.194 180.967C222.233 181.602 221.125 181.759 220.081 181.406C219.037 181.054 218.129 180.218 217.528 179.056V179.056Z" fill="#FFB8B8"/>
<path d="M264.959 190.468C264.403 190.055 263.924 189.489 263.555 188.81C263.186 188.131 262.937 187.356 262.824 186.538C262.712 185.721 262.739 184.881 262.904 184.079C263.069 183.277 263.367 182.531 263.779 181.894L258.51 117.652L268.033 118.215L270.223 181.406C271.002 182.373 271.481 183.676 271.569 185.07C271.656 186.463 271.346 187.849 270.697 188.966C270.048 190.083 269.106 190.853 268.048 191.13C266.991 191.407 265.892 191.171 264.959 190.468V190.468Z" fill="#FFB8B8"/>
<path d="M249.767 98.7006C255.302 98.7006 259.789 92.8868 259.789 85.715C259.789 78.5433 255.302 72.7295 249.767 72.7295C244.232 72.7295 239.745 78.5433 239.745 85.715C239.745 92.8868 244.232 98.7006 249.767 98.7006Z" fill="#FFB8B8"/>
<path d="M264.895 175.857H234.681L234.717 175.553C234.771 175.097 240.102 129.852 236.17 115.05C235.776 113.595 235.811 112.003 236.268 110.579C236.725 109.156 237.572 108.002 238.647 107.339H238.647C244.267 103.91 255.054 99.6883 264.158 109.935C265.498 111.467 266.544 113.383 267.214 115.53C267.884 117.677 268.159 119.996 268.018 122.304L264.895 175.857Z" fill="#448AFF"/>
<path d="M240.484 136.538L226.881 132.963L233.257 113.385C233.639 111.489 234.585 109.866 235.889 108.873C237.192 107.879 238.747 107.597 240.211 108.086C241.676 108.576 242.93 109.799 243.7 111.485C244.47 113.172 244.692 115.186 244.317 117.084L240.484 136.538Z" fill="#448AFF"/>
<path d="M257.906 143.178L257.088 118.888C256.468 114.322 258.485 110.006 261.588 109.3C264.691 108.597 267.721 111.764 268.344 116.364L271.418 139.06L257.906 143.178Z" fill="#448AFF"/>
<path d="M263.89 172.949C268.752 196.94 269.282 227.443 267.97 260.714L261.442 259.657L249.608 196.212L243.08 260.714L235.735 260.186C233.54 225.275 231.404 195.306 234.919 175.593L263.89 172.949Z" fill="#2F2E41"/>
<path d="M256.371 95.7506C254.501 98.3311 251.029 96.9459 250.785 93.4205C250.766 93.1468 250.768 92.8714 250.79 92.598C250.915 91.0365 251.612 89.6188 251.445 87.97C251.407 87.5596 251.289 87.1686 251.102 86.8338C249.612 84.2488 246.115 87.99 244.709 85.6499C243.846 84.215 244.86 81.9558 244.198 80.352C243.325 78.2353 240.739 79.2795 239.117 78.1202C237.312 76.8305 237.42 73.2428 238.608 71.0606C240.057 68.3993 242.597 66.9793 245.105 66.7746C247.614 66.5699 250.105 67.4486 252.447 68.6311C255.108 69.9747 257.746 71.8316 259.384 74.8633C261.375 78.55 261.567 83.5065 260.571 87.8175C259.965 90.4399 257.898 93.6434 256.371 95.7506Z" fill="#2F2E41"/>
<path d="M342.751 274.738H41.4932C41.3646 274.738 41.2413 274.671 41.1505 274.553C41.0597 274.435 41.0087 274.275 41.0087 274.109C41.0087 273.942 41.0597 273.782 41.1505 273.664C41.2413 273.546 41.3646 273.48 41.4932 273.479H342.751C342.88 273.48 343.003 273.546 343.094 273.664C343.185 273.782 343.236 273.942 343.236 274.109C343.236 274.275 343.185 274.435 343.094 274.553C343.003 274.671 342.88 274.738 342.751 274.738V274.738Z" fill="#3F3D56"/>
<path d="M191.374 217.034H138.328C137.629 217.038 136.957 216.684 136.46 216.048C135.963 215.412 135.681 214.547 135.675 213.642V60.2276C135.681 59.3224 135.963 58.457 136.46 57.8211C136.957 57.1853 137.629 56.8309 138.328 56.8358H191.374C192.072 56.8309 192.744 57.1853 193.241 57.8211C193.738 58.457 194.02 59.3224 194.026 60.2276V213.642C194.02 214.547 193.738 215.412 193.241 216.048C192.744 216.684 192.072 217.038 191.374 217.034V217.034Z" fill="white"/>
<path d="M194.026 106.476H135.675V107.533H194.026V106.476Z" fill="#CCCCCC"/>
<path d="M194.23 166.807H135.879V167.864H194.23V166.807Z" fill="#CCCCCC"/>
<path d="M154.853 56.8358H154.037V217.562H154.853V56.8358Z" fill="#CCCCCC"/>
<path d="M175.256 56.8358H174.44V217.562H175.256V56.8358Z" fill="#CCCCCC"/>
</g>
<defs>
<clipPath id="clip0_13_67">
<rect width="355" height="275" fill="white"/>
</clipPath>
</defs>
</svg>
